<svg width="206" height="29" viewBox="0 0 206 29" fill="none" xmlns="http://www.w3.org/2000/svg">
<g clip-path="url(#clip0_37_1172)">
<path d="M67.6026 0.705932V16.6035C67.6026 20.1161 69.5858 22.1902 73.0274 22.1902C76.8774 22.1902 79.0903 19.8857 79.0903 15.4502V0.705932H86.2661V28.0641H79.0956V24.8947C77.4053 27.4864 74.6625 28.7541 70.8716 28.7541C64.4551 28.7561 60.4308 24.1483 60.4308 17.4663V0.705932H67.6026ZM144.663 0.188301C152.831 0.204192 158.593 6.66444 158.573 14.274C158.574 15.0264 158.515 15.7778 158.395 16.5209L137.279 16.4819C138.089 19.7657 140.826 22.1322 144.968 22.1409C147.476 22.1409 150.162 21.2288 151.798 19.1583L156.692 23.0316C154.175 26.541 149.737 28.6063 145.015 28.5972C136.678 28.5694 130.273 22.3944 130.287 14.3884C130.303 6.7276 135.856 0.172411 144.663 0.188301ZM190.194 0.188301C194.568 0.188301 197.077 1.51237 198.767 4.04808L199.439 0.702356H206V28.0641H199.439L198.592 25.2467C196.668 27.3208 194.275 28.592 190.194 28.592C183.893 28.5833 176.717 23.111 176.717 14.5874C176.717 6.00578 183.775 0.188301 190.194 0.188301ZM43.1864 0.188301C51.4107 0.188301 57.9443 6.52699 57.9443 14.357C57.9443 22.1322 51.4107 28.5833 43.1864 28.5833C35.0192 28.5833 28.4871 22.125 28.4871 14.357C28.4871 6.52301 35.0192 0.188301 43.1864 0.188301ZM116.968 0.0139041C121.594 0.0139041 125.692 2.03715 127.917 5.79444L121.598 9.09567C120.661 7.24523 118.905 6.20481 116.679 6.20481C114.515 6.20481 113.459 6.95643 113.459 8.22766C113.459 12.5062 128.565 9.78969 128.565 20.0247C128.565 25.344 124.174 28.5797 117.09 28.5797C111.059 28.5745 106.843 26.6093 104.737 22.1004L111.114 18.8043C112.168 21.06 114.275 22.3892 117.262 22.3892C120.014 22.3892 121.068 21.5232 121.068 20.3079C121.068 15.9063 105.962 18.5739 105.962 8.5113C105.962 2.96158 110.88 0.0139041 116.968 0.0139041ZM14.6992 0.130301C17.1549 0.113407 19.5762 0.700021 21.7451 1.83729C23.9139 2.97455 25.7622 4.62674 27.1232 6.64497L20.9995 10.1524C20.291 9.15257 19.3479 8.33697 18.2508 7.77524C17.1536 7.2135 15.9351 6.92234 14.6992 6.92663C10.4996 6.92663 7.05791 10.3828 7.05791 14.357C7.05791 18.3308 10.4996 21.7869 14.6992 21.7869C15.9933 21.7952 17.2679 21.4759 18.4015 20.8594C19.535 20.243 20.4896 19.35 21.1741 18.2656L27.2375 21.8362C25.8931 23.9136 24.038 25.6212 21.8449 26.7998C19.6519 27.9784 17.1924 28.5896 14.6956 28.5765C6.53205 28.5833 0 22.125 0 14.357C0 6.4674 6.53205 0.130301 14.6992 0.130301ZM104.694 0L103.371 6.6116C103.127 6.58538 102.882 6.57188 102.636 6.57108C98.7879 6.57982 96.575 8.88791 96.5858 13.3217L96.6249 28.0621L89.4511 28.078L89.3903 0.721822L96.5641 0.705932V3.87527C98.235 1.30103 100.949 0.0297945 104.694 0ZM176.783 0.0194658L175.453 6.62392C175.209 6.59878 174.964 6.58525 174.719 6.5834C170.874 6.5834 168.655 8.88632 168.655 13.3217V28.0641H161.481V0.704343H168.655V3.87329C170.333 1.30421 173.044 0.0389315 176.783 0.0194658ZM43.1864 6.98463C38.9871 6.98463 35.5455 10.4408 35.5455 14.357C35.5455 18.3308 38.9871 21.7869 43.1864 21.7869C47.452 21.7869 50.8864 18.3308 50.8864 14.357C50.8864 10.4412 47.4448 6.98463 43.1864 6.98463ZM191.42 6.98741C189.386 6.99509 187.439 7.80018 186.006 9.22558C185.297 9.93115 184.735 10.7679 184.353 11.6879C183.971 12.6079 183.777 13.5931 183.781 14.5874C183.781 18.3892 187.223 21.7869 191.424 21.7869C195.677 21.7869 199.117 18.3888 199.117 14.5294C199.109 12.5216 198.293 10.5991 196.85 9.18475C195.407 7.77041 193.453 6.98002 191.42 6.98741M144.594 6.63981C141.268 6.63981 138.582 8.58718 137.527 11.5221L151.35 11.5468C150.947 8.78223 148.035 6.64458 144.594 6.63981Z" fill="#0056D2"/>
</g>
<defs>
<clipPath id="clip0_37_1172">
<rect width="206" height="29" fill="white"/>
</clipPath>
</defs>
</svg>
