<svg width="39" height="59" viewBox="0 0 39 59" fill="none" xmlns="http://www.w3.org/2000/svg">
<g clip-path="url(#clip0_37_1177)">
<path d="M9.75 59C15.132 59 19.5 54.5947 19.5 49.1667V39.3334H9.75C4.368 39.3334 0 43.7387 0 49.1667C0 54.5947 4.368 59 9.75 59Z" fill="#0ACF83"/>
<path d="M0 29.5C0 24.072 4.368 19.6666 9.75 19.6666H19.5V39.3333H9.75C4.368 39.3333 0 34.928 0 29.5Z" fill="#A259FF"/>
<path d="M0 9.83333C0 4.40533 4.368 0 9.75 0H19.5V19.6667H9.75C4.368 19.6667 0 15.2613 0 9.83333Z" fill="#F24E1E"/>
<path d="M19.5 0H29.25C34.632 0 39 4.40533 39 9.83333C39 15.2613 34.632 19.6667 29.25 19.6667H19.5V0Z" fill="#FF7262"/>
<path d="M39 29.5C39 34.928 34.632 39.3333 29.25 39.3333C23.868 39.3333 19.5 34.928 19.5 29.5C19.5 24.072 23.868 19.6666 29.25 19.6666C34.632 19.6666 39 24.072 39 29.5Z" fill="#1ABCFE"/>
</g>
<defs>
<clipPath id="clip0_37_1177">
<rect width="39" height="59" fill="white"/>
</clipPath>
</defs>
</svg>
