<svg width="168" height="63" viewBox="0 0 168 63" fill="none" xmlns="http://www.w3.org/2000/svg">
<g clip-path="url(#clip0_37_1174)">
<path d="M26.0987 14.9904L13.0476 7.49537L0 14.9904V7.49537L13.0495 0L26.1007 7.49537V14.9904H26.0987Z" fill="#A435F0"/>
<path d="M0 21.2846H6.83583V37.8069C6.83583 42.0759 10.0403 44.1565 13.0495 44.1565C16.0847 44.1565 19.2649 42.0204 19.2649 37.7498V21.2849H26.1007V38.2005C26.1007 42.133 24.8578 45.1674 22.3725 47.2481C19.8854 49.3274 16.7793 50.3396 12.9918 50.3396C9.20784 50.3396 6.10017 49.329 3.67238 47.2484C1.24261 45.1687 0 42.2472 0 38.3683V21.2846ZM85.199 41.819C83.1298 43.6522 80.7726 44.5502 78.0846 44.5502C73.1807 44.5502 69.8926 41.771 69.5212 37.4667H91.6076C91.6076 37.4667 91.7562 36.0775 91.7562 34.7728C91.7562 30.7257 90.4559 27.3531 87.7997 24.5997C85.2029 21.8463 81.8147 20.4972 77.6888 20.4972C73.3402 20.4972 69.7794 21.8463 66.9539 24.5997C64.1862 27.3531 62.7746 30.9493 62.7746 35.4472V35.6691C62.7746 40.1095 64.1862 43.6502 66.9539 46.2926C69.722 48.9334 73.3943 50.2825 77.8578 50.2825C83.0481 50.2825 87.1772 48.2459 90.2757 44.7349L85.199 41.819ZM72.2072 28.0275C73.7303 26.8468 75.5974 26.2296 77.6869 26.2296C79.6635 26.2296 81.3018 26.8468 82.7154 28.085C84.064 29.2121 84.7924 30.5965 84.8554 32.1875H69.696C69.9149 30.5426 70.751 29.1569 72.2092 28.0295L72.2072 28.0275ZM154.011 54.1004C151.237 60.6142 148.336 62.83 143.887 62.83H140.803V56.8019H143.296C144.827 56.8019 146.25 56.229 147.606 53.1172L148.962 50.0015L137.266 21.2846H144.216L152.521 41.9668L161.053 21.2846H168L154.013 54.1001L154.011 54.1004ZM52.712 10.4391V23.8496C50.4719 21.8538 46.9872 20.6657 43.6173 20.6657C39.605 20.6657 36.2168 22.0699 33.4491 24.9343C30.7371 27.7448 29.381 31.2284 29.381 35.4436C29.381 39.6606 30.7371 43.1439 33.4491 46.0099C36.2168 48.8205 39.607 50.227 43.6177 50.227C48.2429 50.227 51.1665 48.418 52.712 47.0006V49.6081H59.4923V10.4407H52.712V10.4391ZM50.6779 41.6287C49.0396 43.2585 46.9501 44.103 44.5203 44.103C42.0906 44.103 40.1143 43.2585 38.4756 41.6287C36.8967 39.9988 36.1036 37.9198 36.1036 35.4472C36.1036 32.9729 36.895 30.8939 38.4759 29.264C40.1143 27.6342 42.0906 26.7913 44.52 26.7913C46.9501 26.7913 49.0396 27.6342 50.6779 29.264C52.372 30.8939 53.2229 32.9729 53.2229 35.4472C53.2229 37.9198 52.372 39.9988 50.6779 41.6287ZM126.727 20.7228C121.578 20.7228 118.901 22.8478 117.067 24.8955C116.334 23.5039 114.268 20.7228 109.442 20.7228C105.363 20.7228 102.959 22.774 101.759 24.2338V21.2881H95.0385V49.6117H101.759V33.313C101.759 29.4912 104.133 26.7378 107.295 26.7378C110.518 26.7378 112.381 29.155 112.381 33.0319V49.6098H119.103V33.311C119.103 29.4341 121.418 26.7362 124.75 26.7362C127.971 26.7362 129.834 29.153 129.834 33.0283V49.6081H136.615V32.0745C136.615 24.6901 132.625 20.7244 126.727 20.7244V20.7228Z" fill="black"/>
</g>
<defs>
<clipPath id="clip0_37_1174">
<rect width="168" height="63" fill="white"/>
</clipPath>
</defs>
</svg>
